<?xml version="1.0" encoding="UTF-8"?>
<svg id="Layer_1" xmlns="http://www.w3.org/2000/svg" version="1.1" viewBox="0 0 32 32">
  <!-- Generator: Adobe Illustrator 29.0.1, SVG Export Plug-In . SVG Version: 2.1.0 Build 192)  -->
  <defs>
    <style>
      .st0 {
        fill: #fff;
      }
    </style>
  </defs>
  <path class="st0" d="M19.8,13.7c-3.2,1.6-6.8-1.4-5.7-4.8,1.1-3.4,5.8-3.8,7.4-.6,1,2,.2,4.4-1.8,5.4h0ZM15.5.8c3.3-1.2,7.1-1.1,9.9,1.3.6.5,1.1,1.1,1.4,1.8.3.9-1,0-1.2-.2-.9-.6-1.9-1.1-2.9-1.5-5.6-1.7-10.8,1.4-14,6.2-1.3,2.1-2.3,4.4-3,6.8,0,.3-.2.6-.3.9-.1.3,0-.7,0-.8.1-1,.3-2,.6-3C7.3,7.1,10.7,2.8,15.5.8h0ZM15.5,28.8v-11.7c.3,0,.6,0,1,0,1.5,0,3-.4,4.3-1.2v12.8c0,1.1-.2,1.9-.7,2.4-.5.5-1.2.8-1.9.8-.7,0-1.4-.3-1.9-.8-.5-.5-.7-1.3-.7-2.4h0Z"/>
</svg>