<?xml version="1.0" encoding="UTF-8"?>
<svg id="Logo" xmlns="http://www.w3.org/2000/svg" viewBox="0 0 1822.62 1389.3">
  <defs>
    <style>
      .cls-1 {
        fill: #fff;
      }
    </style>
  </defs>
  <path class="cls-1" d="M569.58,359.67v-131.44c0-2.82-2.28-5.1-5.1-5.1H226.26c-105.01,0-190.14,85.13-190.14,190.14h0c0,105.01,85.13,190.15,190.14,190.15h293.57s53.08-5.72,53.08,45.23v-181.3h-13.09c-2.15,0-3.89,1.74-3.89,3.89v32.43c0,1.79-1.45,3.25-3.25,3.25H236.67c-51.56,0-93.36-41.8-93.36-93.36h0c0-51.56,41.8-93.36,93.36-93.36h272.58s40.36-.17,43.38,40.65c.16,2.22,2.01,3.95,4.24,3.94,2.7-.01,5.4-.02,7.62-.02,2.82,0,5.09-2.29,5.09-5.11Z"/>
  <path class="cls-1" d="M1025.71,653.56h-437.25v232.35c0,2.29,1.86,4.15,4.15,4.15h433.1c52.15,0,94.43-52.94,94.43-118.25h0c0-65.31-42.28-118.25-94.43-118.25ZM1021.27,766.9c0,13.22-10.72,23.94-23.94,23.94h-309.87v-47.87h309.87c13.22,0,23.94,10.72,23.94,23.94h0Z"/>
  <path class="cls-1" d="M1025.71,506.32h-437.25v236.5h437.25c52.15,0,94.43-52.94,94.43-118.25h0c0-65.31-42.28-118.25-94.43-118.25ZM1021.27,619.66c0,13.22-10.72,23.94-23.94,23.94h-309.87v-47.87h309.87c13.22,0,23.94,10.72,23.94,23.94h0Z"/>
  <path class="cls-1" d="M588.46,506.32v-38.46s.49,38.46,36.35,38.46-36.35,0-36.35,0Z"/>
</svg>